<svg width="24" height="24" viewBox="0 0 24 24" fill="none" xmlns="http://www.w3.org/2000/svg">
<path d="M23.9952 6.98609C24.0025 6.91027 24.0025 6.83393 23.9952 6.75812L21.5961 0.758851C21.5024 0.521708 21.3356 0.320589 21.1199 0.184668C20.9042 0.0487483 20.6508 -0.0149045 20.3965 0.00294372H3.60217C3.36191 0.00271109 3.12713 0.0746406 2.92822 0.209415C2.72931 0.34419 2.57544 0.5356 2.48654 0.758851L0.0873589 6.75812C0.080125 6.83393 0.080125 6.91027 0.0873589 6.98609C0.047892 7.05307 0.0195343 7.12601 0.00338745 7.20206C0.0167396 8.03145 0.244777 8.84322 0.665256 9.55819C1.08574 10.2732 1.6843 10.8669 2.40257 11.2816V22.8001C2.40257 23.1184 2.52896 23.4236 2.75393 23.6486C2.97889 23.8736 3.28401 24 3.60217 24H20.3965C20.7146 24 21.0197 23.8736 21.2447 23.6486C21.4697 23.4236 21.5961 23.1184 21.5961 22.8001V11.3296C22.3213 10.9108 22.9243 10.3095 23.3452 9.58537C23.7661 8.86128 23.9902 8.03962 23.9952 7.20206C24.0061 7.13048 24.0061 7.05767 23.9952 6.98609ZM13.1989 21.6003H10.7997V16.8009H13.1989V21.6003ZM19.1969 21.6003H15.5981V15.601C15.5981 15.2828 15.4717 14.9776 15.2467 14.7526C15.0218 14.5276 14.7167 14.4012 14.3985 14.4012H9.60013C9.28198 14.4012 8.97686 14.5276 8.75189 14.7526C8.52692 14.9776 8.40054 15.2828 8.40054 15.601V21.6003H4.80176V12.0015C5.48489 11.9976 6.15932 11.8479 6.77995 11.5624C7.40058 11.2768 7.95309 10.862 8.40054 10.3457C8.85083 10.8564 9.4046 11.2654 10.0251 11.5455C10.6456 11.8257 11.3185 11.9706 11.9993 11.9706C12.6801 11.9706 13.3531 11.8257 13.9735 11.5455C14.594 11.2654 15.1478 10.8564 15.5981 10.3457C16.0455 10.862 16.5981 11.2768 17.2187 11.5624C17.8393 11.8479 18.5137 11.9976 19.1969 12.0015V21.6003ZM19.1969 9.60177C18.5606 9.60177 17.9503 9.34894 17.5004 8.89891C17.0505 8.44888 16.7977 7.8385 16.7977 7.20206C16.7977 6.88384 16.6713 6.57865 16.4463 6.35364C16.2214 6.12862 15.9162 6.00221 15.5981 6.00221C15.2799 6.00221 14.9748 6.12862 14.7499 6.35364C14.5249 6.57865 14.3985 6.88384 14.3985 7.20206C14.3985 7.8385 14.1457 8.44888 13.6958 8.89891C13.2459 9.34894 12.6356 9.60177 11.9993 9.60177C11.363 9.60177 10.7528 9.34894 10.3028 8.89891C9.8529 8.44888 9.60013 7.8385 9.60013 7.20206C9.60013 6.88384 9.47374 6.57865 9.24878 6.35364C9.02381 6.12862 8.71869 6.00221 8.40054 6.00221C8.08239 6.00221 7.77726 6.12862 7.5523 6.35364C7.32733 6.57865 7.20094 6.88384 7.20094 7.20206C7.21276 7.51719 7.1624 7.83157 7.05275 8.12724C6.94309 8.42291 6.77629 8.69408 6.56186 8.92527C6.34743 9.15645 6.08957 9.34314 5.80301 9.47465C5.51645 9.60617 5.20679 9.67994 4.89173 9.69176C4.25542 9.71562 3.6357 9.48569 3.1689 9.05253C2.93776 8.83805 2.75112 8.58014 2.61963 8.29352C2.48814 8.00689 2.41439 7.69717 2.40257 7.38204L4.41789 2.40265H19.5807L21.5961 7.38204C21.5506 7.98678 21.2779 8.55188 20.8328 8.96369C20.3877 9.3755 19.8032 9.60347 19.1969 9.60177Z" fill="#9747FF"/>
</svg>
